<?xml version="1.0" encoding="utf-8"?>
<!-- Generator: Adobe Illustrator 27.2.0, SVG Export Plug-In . SVG Version: 6.00 Build 0)  -->
<svg version="1.1" xmlns="http://www.w3.org/2000/svg" xmlns:xlink="http://www.w3.org/1999/xlink" x="0px" y="0px"
	 viewBox="0 0 500 500" style="enable-background:new 0 0 500 500;" xml:space="preserve">
<style type="text/css">
	.st0{clip-path:url(#SVGID_00000029739670036383161960000005977956175564697230_);}
	.st1{fill-rule:evenodd;clip-rule:evenodd;fill:url(#SVGID_00000136381728820025424580000001798683007281371823_);}
	.st2{fill-rule:evenodd;clip-rule:evenodd;fill:url(#SVGID_00000148634860248535789250000016349162007541909682_);}
	.st3{fill-rule:evenodd;clip-rule:evenodd;fill:url(#SVGID_00000096772581371741066570000003818320650376140479_);}
	.st4{fill-rule:evenodd;clip-rule:evenodd;fill:url(#SVGID_00000138534965004382540920000004969488758117934513_);}
	.st5{fill-rule:evenodd;clip-rule:evenodd;fill:url(#SVGID_00000121246302058221496860000014344885127681758117_);}
	.st6{fill-rule:evenodd;clip-rule:evenodd;fill:url(#SVGID_00000031922379942025585020000003753753989841061043_);}
	.st7{fill-rule:evenodd;clip-rule:evenodd;fill:url(#SVGID_00000137089592318289424760000008305052538319307963_);}
	.st8{fill-rule:evenodd;clip-rule:evenodd;fill:url(#SVGID_00000150820937258399137770000003177244984368154015_);}
	.st9{fill-rule:evenodd;clip-rule:evenodd;fill:url(#SVGID_00000013890860383149771590000004687231821322728579_);}
	.st10{fill-rule:evenodd;clip-rule:evenodd;fill:url(#SVGID_00000028284054128289640280000007877098828349189283_);}
	.st11{fill-rule:evenodd;clip-rule:evenodd;fill:url(#SVGID_00000124847677995777133590000015618501311010618788_);}
	.st12{fill-rule:evenodd;clip-rule:evenodd;fill:url(#SVGID_00000096021798342047358760000008057081676163732890_);}
	
		.st13{fill-rule:evenodd;clip-rule:evenodd;fill:url(#SVGID_00000022525402726444470140000005364416198928362684_);stroke:url(#SVGID_00000127016070195573316990000008293203465766404490_);stroke-miterlimit:10;}
	
		.st14{fill-rule:evenodd;clip-rule:evenodd;fill:url(#SVGID_00000124142763497363848200000001560548350934048158_);stroke:url(#SVGID_00000059295951327466609110000013826932924095511426_);stroke-miterlimit:10;}
	
		.st15{fill-rule:evenodd;clip-rule:evenodd;fill:url(#SVGID_00000024721526475376228810000010337172844524225946_);stroke:url(#SVGID_00000049216928357784598440000016096300097416953762_);stroke-miterlimit:10;}
	
		.st16{fill-rule:evenodd;clip-rule:evenodd;fill:url(#SVGID_00000029044905195321852060000000183615970956059788_);stroke:url(#SVGID_00000067231775028635114150000003753567395156297107_);stroke-miterlimit:10;}
	
		.st17{fill-rule:evenodd;clip-rule:evenodd;fill:url(#SVGID_00000098195929798186963360000012113727515117103239_);stroke:url(#SVGID_00000070108676822247213940000011415495778139018159_);stroke-miterlimit:10;}
	
		.st18{fill-rule:evenodd;clip-rule:evenodd;fill:url(#SVGID_00000120539122637041207170000000788395427320630201_);stroke:url(#SVGID_00000103981167897270654180000016860332739793441208_);stroke-miterlimit:10;}
</style>
<g id="TEXTS">
</g>
<g id="circulo">
	<g>
		<defs>
			<ellipse id="SVGID_1_" cx="253.01" cy="262.45" rx="240.7" ry="252.39"/>
		</defs>
		<clipPath id="SVGID_00000180363316821605446320000000243322159667250851_">
			<use xlink:href="#SVGID_1_"  style="overflow:visible;"/>
		</clipPath>
		<g style="clip-path:url(#SVGID_00000180363316821605446320000000243322159667250851_);">
			<g>
				<g>
					
						<linearGradient id="SVGID_00000076575388319732451690000015954747810409974960_" gradientUnits="userSpaceOnUse" x1="252.009" y1="342.8367" x2="252.009" y2="420.7571">
						<stop  offset="0" style="stop-color:#4F5668"/>
						<stop  offset="1" style="stop-color:#181D28"/>
					</linearGradient>
					<path style="fill-rule:evenodd;clip-rule:evenodd;fill:url(#SVGID_00000076575388319732451690000015954747810409974960_);" d="
						M59.65,387.96c2.63,1.69,6.46,3.11,10.5,3.11c5.99,0,9.49-3.32,9.49-8.12c0-4.45-2.42-6.99-8.55-9.46
						c-7.41-2.75-11.99-6.78-11.99-13.49c0-7.41,5.86-12.92,14.68-12.92c4.65,0,8.01,1.13,10.03,2.33l-1.62,5.01
						c-1.48-0.85-4.51-2.26-8.62-2.26c-6.2,0-8.55,3.88-8.55,7.13c0,4.45,2.76,6.64,9.02,9.18c7.68,3.11,11.58,6.99,11.58,13.98
						c0,7.34-5.19,13.7-15.89,13.7c-4.38,0-9.16-1.34-11.58-3.04L59.65,387.96z"/>
					
						<linearGradient id="SVGID_00000037691642724416592270000008780414981882781849_" gradientUnits="userSpaceOnUse" x1="252.009" y1="342.8367" x2="252.009" y2="420.7571">
						<stop  offset="0" style="stop-color:#4F5668"/>
						<stop  offset="1" style="stop-color:#181D28"/>
					</linearGradient>
					<path style="fill-rule:evenodd;clip-rule:evenodd;fill:url(#SVGID_00000037691642724416592270000008780414981882781849_);" d="
						M100.79,379.49c0.13,8.4,5.25,11.86,11.18,11.86c4.24,0,6.8-0.78,9.02-1.77l1.01,4.45c-2.09,0.99-5.66,2.12-10.84,2.12
						c-10.03,0-16.03-6.92-16.03-17.23c0-10.31,5.79-18.43,15.29-18.43c10.64,0,13.47,9.81,13.47,16.1c0,1.27-0.13,2.26-0.2,2.89
						H100.79z M118.16,375.04c0.07-3.95-1.55-10.1-8.21-10.1c-5.99,0-8.62,5.79-9.09,10.1H118.16z"/>
					
						<linearGradient id="SVGID_00000167362950109145619560000003030306005641231785_" gradientUnits="userSpaceOnUse" x1="252.009" y1="342.8367" x2="252.009" y2="420.7571">
						<stop  offset="0" style="stop-color:#4F5668"/>
						<stop  offset="1" style="stop-color:#181D28"/>
					</linearGradient>
					<path style="fill-rule:evenodd;clip-rule:evenodd;fill:url(#SVGID_00000167362950109145619560000003030306005641231785_);" d="
						M135.26,371.93c0-4.02-0.07-7.48-0.27-10.66h5.18l0.2,6.71h0.27c1.48-4.59,5.05-7.48,9.02-7.48c0.67,0,1.15,0.07,1.68,0.21
						v5.86c-0.61-0.14-1.21-0.21-2.02-0.21c-4.18,0-7.14,3.32-7.95,7.98c-0.13,0.85-0.27,1.84-0.27,2.89v18.22h-5.86V371.93z"/>
					
						<linearGradient id="SVGID_00000020392160307234639260000010419996974491163287_" gradientUnits="userSpaceOnUse" x1="252.009" y1="342.8367" x2="252.009" y2="420.7571">
						<stop  offset="0" style="stop-color:#4F5668"/>
						<stop  offset="1" style="stop-color:#181D28"/>
					</linearGradient>
					<path style="fill-rule:evenodd;clip-rule:evenodd;fill:url(#SVGID_00000020392160307234639260000010419996974491163287_);" d="
						M163.61,361.27l6.4,19.2c1.08,3.11,1.95,5.93,2.63,8.75h0.2c0.74-2.82,1.68-5.65,2.76-8.75l6.33-19.2h6.2l-12.79,34.17h-5.66
						l-12.39-34.17H163.61z"/>
					
						<linearGradient id="SVGID_00000170243190423797198030000010581717702727134366_" gradientUnits="userSpaceOnUse" x1="252.009" y1="342.8367" x2="252.009" y2="420.7571">
						<stop  offset="0" style="stop-color:#4F5668"/>
						<stop  offset="1" style="stop-color:#181D28"/>
					</linearGradient>
					<path style="fill-rule:evenodd;clip-rule:evenodd;fill:url(#SVGID_00000170243190423797198030000010581717702727134366_);" d="
						M204.34,351.67c0.07,2.12-1.41,3.81-3.77,3.81c-2.09,0-3.57-1.69-3.57-3.81c0-2.19,1.55-3.88,3.7-3.88
						C202.93,347.79,204.34,349.48,204.34,351.67z M197.74,395.44v-34.17h5.93v34.17H197.74z"/>
					
						<linearGradient id="SVGID_00000003089426640150522470000009466364630089319553_" gradientUnits="userSpaceOnUse" x1="252.009" y1="342.8367" x2="252.009" y2="420.7571">
						<stop  offset="0" style="stop-color:#4F5668"/>
						<stop  offset="1" style="stop-color:#181D28"/>
					</linearGradient>
					<path style="fill-rule:evenodd;clip-rule:evenodd;fill:url(#SVGID_00000003089426640150522470000009466364630089319553_);" d="
						M241.24,373.13H223.6v17.16h19.66v5.15h-25.52v-47.59h24.51v5.15H223.6v15.04h17.64V373.13z"/>
					
						<linearGradient id="SVGID_00000175285817656653820690000013244272981863763626_" gradientUnits="userSpaceOnUse" x1="252.009" y1="342.8367" x2="252.009" y2="420.7571">
						<stop  offset="0" style="stop-color:#4F5668"/>
						<stop  offset="1" style="stop-color:#181D28"/>
					</linearGradient>
					<path style="fill-rule:evenodd;clip-rule:evenodd;fill:url(#SVGID_00000175285817656653820690000013244272981863763626_);" d="
						M257.46,361.27l4.65,7.34c1.21,1.91,2.22,3.67,3.3,5.58h0.2c1.08-2.05,2.15-3.81,3.23-5.65l4.58-7.27h6.4l-11.11,16.52
						l11.45,17.65h-6.73l-4.78-7.7c-1.28-1.98-2.36-3.88-3.5-5.93H265c-1.08,2.05-2.22,3.88-3.43,5.93l-4.71,7.7h-6.53L261.91,378
						l-11.04-16.73H257.46z"/>
					
						<linearGradient id="SVGID_00000143583097792118071360000012878295714925671093_" gradientUnits="userSpaceOnUse" x1="252.009" y1="342.8367" x2="252.009" y2="420.7571">
						<stop  offset="0" style="stop-color:#4F5668"/>
						<stop  offset="1" style="stop-color:#181D28"/>
					</linearGradient>
					<path style="fill-rule:evenodd;clip-rule:evenodd;fill:url(#SVGID_00000143583097792118071360000012878295714925671093_);" d="
						M289.92,372.43c0-4.38-0.13-7.91-0.27-11.16h5.32l0.27,5.86h0.13c2.42-4.17,6.26-6.64,11.58-6.64c7.88,0,13.8,6.99,13.8,17.37
						c0,12.29-7.14,18.36-14.81,18.36c-4.31,0-8.08-1.98-10.03-5.37h-0.13v18.57h-5.86V372.43z M295.77,381.53
						c0,0.92,0.13,1.76,0.27,2.54c1.08,4.31,4.65,7.27,8.89,7.27c6.26,0,9.9-5.37,9.9-13.2c0-6.85-3.43-12.71-9.7-12.71
						c-4.04,0-7.81,3.04-8.96,7.7c-0.2,0.78-0.4,1.69-0.4,2.54V381.53z"/>
					
						<linearGradient id="SVGID_00000096059265852585753410000003065300667115563665_" gradientUnits="userSpaceOnUse" x1="252.009" y1="342.8367" x2="252.009" y2="420.7571">
						<stop  offset="0" style="stop-color:#4F5668"/>
						<stop  offset="1" style="stop-color:#181D28"/>
					</linearGradient>
					<path style="fill-rule:evenodd;clip-rule:evenodd;fill:url(#SVGID_00000096059265852585753410000003065300667115563665_);" d="
						M332.26,371.93c0-4.02-0.07-7.48-0.27-10.66h5.18l0.2,6.71h0.27c1.48-4.59,5.05-7.48,9.02-7.48c0.67,0,1.14,0.07,1.68,0.21
						v5.86c-0.61-0.14-1.21-0.21-2.02-0.21c-4.17,0-7.14,3.32-7.95,7.98c-0.13,0.85-0.27,1.84-0.27,2.89v18.22h-5.86V371.93z"/>
					
						<linearGradient id="SVGID_00000176766176644493723310000016720863016899013534_" gradientUnits="userSpaceOnUse" x1="252.009" y1="342.8367" x2="252.009" y2="420.7571">
						<stop  offset="0" style="stop-color:#4F5668"/>
						<stop  offset="1" style="stop-color:#181D28"/>
					</linearGradient>
					<path style="fill-rule:evenodd;clip-rule:evenodd;fill:url(#SVGID_00000176766176644493723310000016720863016899013534_);" d="
						M361.62,379.49c0.13,8.4,5.25,11.86,11.18,11.86c4.24,0,6.8-0.78,9.02-1.77l1.01,4.45c-2.09,0.99-5.66,2.12-10.84,2.12
						c-10.03,0-16.03-6.92-16.03-17.23c0-10.31,5.79-18.43,15.29-18.43c10.64,0,13.47,9.81,13.47,16.1c0,1.27-0.13,2.26-0.2,2.89
						H361.62z M378.99,375.04c0.07-3.95-1.55-10.1-8.21-10.1c-5.99,0-8.62,5.79-9.09,10.1H378.99z"/>
					
						<linearGradient id="SVGID_00000084511847536073017110000006971207184823355540_" gradientUnits="userSpaceOnUse" x1="252.009" y1="342.8367" x2="252.009" y2="420.7571">
						<stop  offset="0" style="stop-color:#4F5668"/>
						<stop  offset="1" style="stop-color:#181D28"/>
					</linearGradient>
					<path style="fill-rule:evenodd;clip-rule:evenodd;fill:url(#SVGID_00000084511847536073017110000006971207184823355540_);" d="
						M395.28,389.09c1.75,1.2,4.85,2.47,7.81,2.47c4.31,0,6.33-2.26,6.33-5.08c0-2.96-1.68-4.59-6.06-6.28
						c-5.86-2.19-8.62-5.58-8.62-9.67c0-5.51,4.24-10.03,11.25-10.03c3.3,0,6.19,0.99,8.01,2.12l-1.48,4.52
						c-1.28-0.85-3.64-1.98-6.67-1.98c-3.5,0-5.45,2.12-5.45,4.66c0,2.82,1.95,4.09,6.19,5.79c5.66,2.26,8.55,5.22,8.55,10.31
						c0,6-4.44,10.24-12.19,10.24c-3.57,0-6.87-0.92-9.16-2.33L395.28,389.09z"/>
					
						<linearGradient id="SVGID_00000012465953235137023360000000990224667835330698_" gradientUnits="userSpaceOnUse" x1="252.009" y1="342.8367" x2="252.009" y2="420.7571">
						<stop  offset="0" style="stop-color:#4F5668"/>
						<stop  offset="1" style="stop-color:#181D28"/>
					</linearGradient>
					<path style="fill-rule:evenodd;clip-rule:evenodd;fill:url(#SVGID_00000012465953235137023360000000990224667835330698_);" d="
						M425.98,389.09c1.75,1.2,4.85,2.47,7.81,2.47c4.31,0,6.33-2.26,6.33-5.08c0-2.96-1.68-4.59-6.06-6.28
						c-5.86-2.19-8.62-5.58-8.62-9.67c0-5.51,4.24-10.03,11.25-10.03c3.3,0,6.19,0.99,8.01,2.12l-1.48,4.52
						c-1.28-0.85-3.64-1.98-6.67-1.98c-3.5,0-5.45,2.12-5.45,4.66c0,2.82,1.95,4.09,6.19,5.79c5.66,2.26,8.55,5.22,8.55,10.31
						c0,6-4.44,10.24-12.19,10.24c-3.57,0-6.87-0.92-9.16-2.33L425.98,389.09z"/>
				</g>
			</g>
		</g>
		<g style="clip-path:url(#SVGID_00000180363316821605446320000000243322159667250851_);">
			<g>
				<g>
					
						<linearGradient id="SVGID_00000120555900111063877690000011553978997430922657_" gradientUnits="userSpaceOnUse" x1="140.3508" y1="150.7945" x2="300.3612" y2="388.4866" gradientTransform="matrix(1 0 0 1 0.8816 -41.6135)">
						<stop  offset="0" style="stop-color:#4F5668"/>
						<stop  offset="0.4721" style="stop-color:#373D4C"/>
						<stop  offset="1" style="stop-color:#181D28"/>
					</linearGradient>
					
						<linearGradient id="SVGID_00000081632415913486036010000008228361385174949538_" gradientUnits="userSpaceOnUse" x1="142.4933" y1="111.0073" x2="280.3128" y2="315.7351">
						<stop  offset="0" style="stop-color:#4F5668"/>
						<stop  offset="0.4721" style="stop-color:#373D4C"/>
						<stop  offset="1" style="stop-color:#181D28"/>
					</linearGradient>
					
						<path style="fill-rule:evenodd;clip-rule:evenodd;fill:url(#SVGID_00000120555900111063877690000011553978997430922657_);stroke:url(#SVGID_00000081632415913486036010000008228361385174949538_);stroke-miterlimit:10;" d="
						M202.76,236.74c-27.66-29.01-27.66-76.03,0-105.04L167.6,94.83c-3.09,3.24-5.97,6.62-8.65,10.11l11.94,19.51
						c-3.24,4.87-6.05,9.95-8.41,15.21l-22.05-1.08c-3.14,8.51-5.37,17.3-6.68,26.22l19.64,10.64c-0.47,5.84-0.47,11.71,0,17.56
						l-19.64,10.64c1.31,8.91,3.55,17.7,6.69,26.22l22.05-1.08c2.36,5.26,5.17,10.34,8.41,15.21l-11.94,19.51
						c2.69,3.49,5.56,6.87,8.65,10.11c3.09,3.24,6.32,6.26,9.64,9.07l18.61-12.52c4.64,3.39,9.49,6.34,14.5,8.82l-1.03,23.13
						c8.12,3.29,16.5,5.63,25,7.01l10.15-20.59c5.57,0.49,11.17,0.49,16.74,0l10.15,20.59c8.5-1.38,16.88-3.72,25-7.01l-1.03-23.13
						c5.01-2.47,9.86-5.42,14.5-8.82l18.61,12.52c3.33-2.82,6.55-5.83,9.64-9.07l-35.16-36.87
						C275.27,265.74,230.42,265.74,202.76,236.74z"/>
				</g>
				<g>
					
						<linearGradient id="SVGID_00000161609466048184773840000014494751165605244588_" gradientUnits="userSpaceOnUse" x1="177.6556" y1="186.6636" x2="307.6139" y2="330.5104" gradientTransform="matrix(1 0 0 1 0.8816 -41.6135)">
						<stop  offset="0" style="stop-color:#FFD549"/>
						<stop  offset="1" style="stop-color:#E37727"/>
					</linearGradient>
					
						<linearGradient id="SVGID_00000042708459490139985640000012549702743827065780_" gradientUnits="userSpaceOnUse" x1="199.5193" y1="148.6831" x2="266.2449" y2="247.8025">
						<stop  offset="0" style="stop-color:#4F5668"/>
						<stop  offset="0.4721" style="stop-color:#373D4C"/>
						<stop  offset="1" style="stop-color:#181D28"/>
					</linearGradient>
					
						<path style="fill-rule:evenodd;clip-rule:evenodd;fill:url(#SVGID_00000161609466048184773840000014494751165605244588_);stroke:url(#SVGID_00000042708459490139985640000012549702743827065780_);stroke-miterlimit:10;" d="
						M228.72,209.52c-13.33-13.97-13.33-36.63,0-50.6l-16.94-17.76c-1.49,1.56-2.88,3.19-4.17,4.87l5.75,9.4
						c-1.56,2.35-2.91,4.79-4.05,7.33l-10.62-0.52c-1.51,4.1-2.59,8.33-3.22,12.63l9.46,5.13c-0.22,2.81-0.22,5.64,0,8.46
						l-9.46,5.13c0.63,4.29,1.71,8.53,3.22,12.63l10.62-0.52c1.14,2.53,2.49,4.98,4.05,7.33l-5.75,9.4
						c1.29,1.68,2.68,3.31,4.17,4.87c1.49,1.56,3.04,3.01,4.65,4.37l8.97-6.03c2.24,1.63,4.57,3.06,6.99,4.25l-0.5,11.14
						c3.91,1.58,7.95,2.71,12.04,3.38l4.89-9.92c2.68,0.24,5.38,0.24,8.07,0l4.89,9.92c4.1-0.66,8.13-1.79,12.04-3.38l-0.5-11.14
						c2.41-1.19,4.75-2.61,6.99-4.25l8.97,6.03c1.6-1.36,3.16-2.81,4.65-4.37l-16.94-17.76C263.65,223.5,242.04,223.5,228.72,209.52
						z"/>
				</g>
				<g>
					
						<linearGradient id="SVGID_00000140708550751640973880000017157873020186393238_" gradientUnits="userSpaceOnUse" x1="252.7722" y1="75.7073" x2="377.5691" y2="324.6332" gradientTransform="matrix(1 0 0 1 0.8816 -41.6135)">
						<stop  offset="0" style="stop-color:#FFD549"/>
						<stop  offset="1" style="stop-color:#E37727"/>
					</linearGradient>
					
						<linearGradient id="SVGID_00000029759576482147305880000001761657973094122372_" gradientUnits="userSpaceOnUse" x1="246.2407" y1="41.0206" x2="380.7724" y2="240.8646">
						<stop  offset="0" style="stop-color:#4F5668"/>
						<stop  offset="0.4721" style="stop-color:#373D4C"/>
						<stop  offset="1" style="stop-color:#181D28"/>
					</linearGradient>
					
						<path style="fill-rule:evenodd;clip-rule:evenodd;fill:url(#SVGID_00000140708550751640973880000017157873020186393238_);stroke:url(#SVGID_00000029759576482147305880000001761657973094122372_);stroke-miterlimit:10;" d="
						M220.69,82.56c0,0-0.48,1.35-1.21,3.37c35.04-13.05,75.67-4.88,103.71,24.53c35.44,37.16,38.54,95.39,9.31,136.25l15.02,15.75
						c37.38-49.62,34.26-121.81-9.43-167.62c-34.43-36.1-84.49-45.77-127.33-29.07l3.85,2.25L220.69,82.56z"/>
					
						<linearGradient id="SVGID_00000026847445505869987810000016327432654438721981_" gradientUnits="userSpaceOnUse" x1="198.5558" y1="103.0444" x2="323.7661" y2="352.7949" gradientTransform="matrix(1 0 0 1 0.8816 -41.6135)">
						<stop  offset="0" style="stop-color:#FFD549"/>
						<stop  offset="1" style="stop-color:#E37727"/>
					</linearGradient>
					
						<linearGradient id="SVGID_00000080901272889643964020000016785817314563720893_" gradientUnits="userSpaceOnUse" x1="196.1344" y1="62.2226" x2="220.1035" y2="97.8283">
						<stop  offset="0" style="stop-color:#4F5668"/>
						<stop  offset="0.4721" style="stop-color:#373D4C"/>
						<stop  offset="1" style="stop-color:#181D28"/>
					</linearGradient>
					
						<path style="fill-rule:evenodd;clip-rule:evenodd;fill:url(#SVGID_00000026847445505869987810000016327432654438721981_);stroke:url(#SVGID_00000080901272889643964020000016785817314563720893_);stroke-miterlimit:10;" d="
						M212.58,87.72l-17.15,9.3c6.05,4.89,14.45,6.02,21.68,2.1c9.95-5.4,13.84-18.22,8.69-28.65c-5.15-10.43-17.38-14.51-27.33-9.11
						c-7.23,3.92-11.2,11.77-10.89,19.77l17.15-9.3l9,5.19L212.58,87.72z"/>
				</g>
				<g>
					
						<linearGradient id="SVGID_00000157990773174577815760000013583741475043079817_" gradientUnits="userSpaceOnUse" x1="241.3928" y1="145.4095" x2="373.1701" y2="329.9962" gradientTransform="matrix(1 0 0 1 0.8816 -41.6135)">
						<stop  offset="0" style="stop-color:#4F5668"/>
						<stop  offset="0.4721" style="stop-color:#373D4C"/>
						<stop  offset="1" style="stop-color:#181D28"/>
					</linearGradient>
					
						<linearGradient id="SVGID_00000062164128992767264850000008225039257898834830_" gradientUnits="userSpaceOnUse" x1="242.3968" y1="102.3883" x2="307.0083" y2="198.3674">
						<stop  offset="0" style="stop-color:#4F5668"/>
						<stop  offset="0.4721" style="stop-color:#373D4C"/>
						<stop  offset="1" style="stop-color:#181D28"/>
					</linearGradient>
					
						<path style="fill-rule:evenodd;clip-rule:evenodd;fill:url(#SVGID_00000157990773174577815760000013583741475043079817_);stroke:url(#SVGID_00000062164128992767264850000008225039257898834830_);stroke-miterlimit:10;" d="
						M229.21,138.39c18.84-10.69,42.86-7.72,58.78,8.98c10.09,10.58,14.88,24.56,14.49,38.42l7.73-4.64l10.42,1.31l3,3.15
						c0.35-19.47-6.54-39.06-20.71-53.91c-24.22-25.4-61.62-28.55-89.12-9.47L229.21,138.39z"/>
					
						<linearGradient id="SVGID_00000127040626711767094360000016268565254680562080_" gradientUnits="userSpaceOnUse" x1="243.832" y1="142.5346" x2="377.0692" y2="329.1664" gradientTransform="matrix(1 0 0 1 0.8816 -41.6135)">
						<stop  offset="0" style="stop-color:#4F5668"/>
						<stop  offset="0.4721" style="stop-color:#373D4C"/>
						<stop  offset="1" style="stop-color:#181D28"/>
					</linearGradient>
					
						<linearGradient id="SVGID_00000183954680361612655490000016775049338086575542_" gradientUnits="userSpaceOnUse" x1="300.0626" y1="177.4372" x2="323.9968" y2="212.9909">
						<stop  offset="0" style="stop-color:#4F5668"/>
						<stop  offset="0.4721" style="stop-color:#373D4C"/>
						<stop  offset="1" style="stop-color:#181D28"/>
					</linearGradient>
					
						<path style="fill-rule:evenodd;clip-rule:evenodd;fill:url(#SVGID_00000127040626711767094360000016268565254680562080_);stroke:url(#SVGID_00000183954680361612655490000016775049338086575542_);stroke-miterlimit:10;" d="
						M326.78,180.68c-7.66-8.54-20.47-8.96-28.62-0.93c-8.15,8.03-8.54,21.46-0.88,30.01c7.66,8.54,20.47,8.96,28.62,0.93
						C334.04,202.65,334.44,189.22,326.78,180.68z M310.91,206.36l-8.64-6.59l1.12-11.15l9.77-4.55l8.64,6.59l-1.12,11.15
						L310.91,206.36z"/>
				</g>
			</g>
		</g>
	</g>
</g>
</svg>
